<svg width="64" height="64" viewBox="0 0 64 64" fill="none" xmlns="http://www.w3.org/2000/svg">
<g id="Logo 10">
<rect id="Rectangle 220" width="64" height="64" rx="32" fill="#4D86DA"/>
<g id="Group 170">
<path id="Ellipse 50 (Stroke)" fill-rule="evenodd" clip-rule="evenodd" d="M22.4825 32.1455C22.4825 37.4003 26.602 41.6101 31.6237 41.6101L31.6237 48.291C22.9423 48.291 15.9531 41.0349 15.9531 32.1455C15.9531 23.2562 22.9423 16.0001 31.6237 16.0001L31.6237 22.6809C26.602 22.6809 22.4825 26.8908 22.4825 32.1455Z" fill="white"/>
<path id="Ellipse 50 (Stroke)_2" fill-rule="evenodd" clip-rule="evenodd" d="M38.1525 32.1455C38.1525 37.4003 42.2719 41.6101 47.2937 41.6101L47.2937 48.291C38.6122 48.291 31.623 41.0349 31.623 32.1455C31.623 23.2562 38.6122 16.0001 47.2937 16.0001L47.2937 22.6809C42.2719 22.6809 38.1525 26.8908 38.1525 32.1455Z" fill="white"/>
<rect id="Rectangle 233" x="31.623" y="16" width="15.6706" height="6.64814" fill="white"/>
<rect id="Rectangle 234" x="31.623" y="41.6431" width="15.6706" height="6.64814" fill="white"/>
</g>
</g>
</svg>
