<svg width="64" height="64" viewBox="0 0 64 64" fill="none" xmlns="http://www.w3.org/2000/svg">
<g id="Company Logo">
<mask id="mask0_33841_20402" style="mask-type:alpha" maskUnits="userSpaceOnUse" x="0" y="0" width="64" height="64">
<circle id="Ellipse 3" cx="32" cy="32" r="32" fill="#C4C4C4"/>
</mask>
<g mask="url(#mask0_33841_20402)">
<g id="Loo 20">
<rect id="Rectangle 220" width="64" height="64" rx="32" fill="#004BE3"/>
<g id="Group">
<path id="Vector" d="M24.7188 13.9202L27.9187 16.9602C29.1187 18.0802 29.7588 19.6002 29.7588 21.2802C29.7588 22.8802 30.3987 24.4002 31.5187 25.5202L31.9187 25.9202L35.5988 14.0002" fill="#FEFFFB"/>
<path id="Vector_2" d="M13.8398 24.56L18.2398 24.4001C19.8398 24.3201 21.4398 24.9601 22.5598 26.0801C23.6798 27.2001 25.1998 27.76 26.7998 27.76H27.3598L21.4398 16.8" fill="#FEFFFB"/>
<path id="Vector_3" d="M13.8396 39.7602L16.7996 36.5602C17.9196 35.3602 19.4396 34.6402 21.0396 34.6402C22.6396 34.6402 24.0796 33.9202 25.1996 32.8002L25.5996 32.4002L13.5996 28.9602" fill="#FEFFFB"/>
<path id="Vector_4" d="M24.7188 50.3202L24.4788 45.9202C24.3988 44.3202 24.9588 42.7202 26.0788 41.5202C27.1188 40.4002 27.7588 38.8002 27.6788 37.2802V36.7202L16.7988 42.8802" fill="#FEFFFB"/>
<path id="Vector_5" d="M39.9191 50.0001L36.6391 47.1201C35.4391 46.0801 34.7191 44.5601 34.6391 42.8801C34.5591 41.2801 33.8391 39.8401 32.7191 38.7201L32.3191 38.3201L29.1191 50.4001" fill="#FEFFFB"/>
<path id="Vector_6" d="M50.3187 38.8801L45.9187 39.2001C44.3187 39.3601 42.7187 38.8001 41.5187 37.6801C40.3187 36.6401 38.7987 36.0801 37.1987 36.1601H36.6387L43.0387 46.8801" fill="#FEFFFB"/>
<path id="Vector_7" d="M49.6002 23.76L46.8002 27.12C45.7602 28.32 44.2402 29.12 42.6402 29.2C41.0402 29.28 39.6002 30 38.5602 31.2L38.2402 31.6L50.4002 34.48" fill="#FEFFFB"/>
<path id="Vector_8" d="M38.3186 13.6001L38.7186 18.0001C38.8786 19.6001 38.3987 21.2001 37.2787 22.4801C36.2387 23.6801 35.7586 25.2001 35.8386 26.8001L35.9186 27.3601L46.4787 20.7201" fill="#FEFFFB"/>
</g>
</g>
</g>
</g>
</svg>
